<svg width="74" height="74" viewBox="0 0 74 74" fill="none" xmlns="http://www.w3.org/2000/svg">
<path d="M18 56.2748V52.5019C18 42.0834 26.4459 33.6374 36.8645 33.6374C47.283 33.6374 55.729 42.0834 55.729 52.5019V56.2748" stroke="#E6E8E5" stroke-width="5.65935" stroke-linecap="round"/>
<path d="M36.8645 33.6374C43.1158 33.6374 48.1832 28.57 48.1832 22.3187C48.1832 16.0676 43.1158 11 36.8645 11C30.6132 11 25.5458 16.0676 25.5458 22.3187C25.5458 28.57 30.6132 33.6374 36.8645 33.6374Z" stroke="#E6E8E5" stroke-width="5.65935" stroke-linecap="round" stroke-linejoin="round"/>
<path d="M70.9122 21.8645V52.0477C70.9122 62.4662 62.4662 70.9122 52.0477 70.9122H21.8645C11.4459 70.9122 3 62.4662 3 52.0477V21.8645C3 11.4459 11.4459 3 21.8645 3H52.0477C62.4662 3 70.9122 11.4459 70.9122 21.8645Z" stroke="#E6E8E5" stroke-width="5.65935" stroke-linecap="round" stroke-linejoin="round"/>
</svg>
