<svg width="74" height="74" viewBox="0 0 74 74" fill="none" xmlns="http://www.w3.org/2000/svg">
<path d="M36.9561 70.9122C55.7094 70.9122 70.9122 55.7094 70.9122 36.9561C70.9122 18.2027 55.7094 3 36.9561 3C18.2027 3 3 18.2027 3 36.9561C3 43.1409 4.65356 48.9395 7.54271 53.9341L4.6978 69.2144L19.978 66.3695C24.9725 69.2585 30.7713 70.9122 36.9561 70.9122Z" stroke="#79797C" stroke-width="5.09341" stroke-linecap="round" stroke-linejoin="round"/>
<path d="M47.1396 41.4485L39.8615 42.8588C34.9453 40.3913 31.9085 37.5568 30.1412 33.1385L31.502 25.8393L28.9298 19H22.3007C20.308 19 18.7387 20.6468 19.0364 22.6171C19.7793 27.5361 21.9701 36.4549 28.3739 42.8588C35.0989 49.5838 44.7847 52.502 50.1154 53.6619C52.174 54.1099 54 52.5039 54 50.3973V44.0627L47.1396 41.4485Z" fill="#79797C"/>
</svg>
