<svg width="56" height="57" viewBox="0 0 56 57" fill="none" xmlns="http://www.w3.org/2000/svg">
<path d="M28 53.499C41.807 53.499 53 42.306 53 28.499C53 14.6919 41.807 3.49902 28 3.49902C14.1929 3.49902 3 14.6919 3 28.499C3 33.0525 4.21743 37.3218 6.34455 40.999L4.25 52.249L15.5 50.1545C19.1772 52.2815 23.4465 53.499 28 53.499Z" stroke="white" stroke-width="5.09341" stroke-linecap="round" stroke-linejoin="round"/>
<path d="M35.4976 31.8066L30.1391 32.845C26.5196 31.0283 24.2837 28.9414 22.9826 25.6885L23.9844 20.3145L22.0906 15.2791H17.21C15.7429 15.2791 14.5876 16.4915 14.8067 17.9421C15.3537 21.5637 16.9666 28.1301 21.6814 32.845C26.6326 37.7962 33.7637 39.9447 37.6885 40.7987C39.2041 41.1285 40.5485 39.9461 40.5485 38.3951V33.7313L35.4976 31.8066Z" fill="white"/>
</svg>
